<?xml version="1.0" encoding="UTF-8"?>
<svg xmlns="http://www.w3.org/2000/svg" xmlns:xlink="http://www.w3.org/1999/xlink" width="420pt" height="118pt" viewBox="0 0 420 118" version="1.1">
<g id="surface1">
<path style=" stroke:none;fill-rule:nonzero;fill:rgb(92.89856%,10.998535%,14.099121%);fill-opacity:1;" d="M 27.128906 14.070313 C 27.128906 12.253906 27.480469 10.546875 28.164063 8.945313 C 28.855469 7.355469 29.796875 5.957031 30.992188 4.765625 C 32.195313 3.585938 33.59375 2.640625 35.207031 1.960938 C 36.808594 1.265625 38.523438 0.925781 40.339844 0.925781 C 42.171875 0.925781 43.875 1.265625 45.476563 1.960938 C 47.066406 2.640625 48.464844 3.585938 49.644531 4.765625 C 50.839844 5.957031 51.769531 7.355469 52.464844 8.945313 C 53.144531 10.546875 53.496094 12.253906 53.496094 14.070313 C 53.496094 15.886719 53.144531 17.601563 52.464844 19.203125 C 51.769531 20.792969 50.839844 22.191406 49.644531 23.375 C 48.464844 24.566406 47.066406 25.496094 45.476563 26.191406 C 43.875 26.871094 42.171875 27.222656 40.339844 27.222656 C 38.523438 27.222656 36.808594 26.871094 35.207031 26.191406 C 33.59375 25.496094 32.195313 24.566406 30.992188 23.375 C 29.796875 22.191406 28.855469 20.792969 28.164063 19.203125 C 27.480469 17.601563 27.128906 15.886719 27.128906 14.070313 Z M 13.953125 103.703125 C 12.132813 103.703125 10.429688 103.359375 8.828125 102.667969 C 7.226563 101.988281 5.839844 101.042969 4.648438 99.863281 C 3.464844 98.667969 2.523438 97.285156 1.839844 95.679688 C 1.148438 94.082031 0.808594 92.375 0.808594 90.558594 L 0.808594 85.296875 L 61.414063 85.296875 L 61.414063 77.378906 L 0.808594 77.378906 L 0.808594 48.355469 C 0.808594 46.535156 1.148438 44.820313 1.839844 43.230469 C 2.523438 41.628906 3.464844 40.242188 4.648438 39.050781 C 5.839844 37.867188 7.226563 36.925781 8.828125 36.246094 C 10.429688 35.550781 12.132813 35.210938 13.953125 35.210938 L 66.777344 35.210938 C 68.59375 35.210938 70.308594 35.550781 71.910156 36.246094 C 73.523438 36.925781 74.921875 37.867188 76.101563 39.050781 C 77.296875 40.242188 78.226563 41.628906 78.921875 43.230469 C 79.613281 44.820313 79.953125 46.535156 79.953125 48.355469 L 79.953125 53.613281 L 19.210938 53.613281 L 19.210938 61.5 L 79.953125 61.5 L 79.953125 90.558594 C 79.953125 92.375 79.613281 94.082031 78.921875 95.679688 C 78.226563 97.285156 77.296875 98.667969 76.101563 99.863281 C 74.921875 101.042969 73.523438 101.988281 71.910156 102.667969 C 70.308594 103.359375 68.59375 103.703125 66.777344 103.703125 L 13.953125 103.703125 "/>
<path style=" stroke:none;fill-rule:nonzero;fill:rgb(92.89856%,10.998535%,14.099121%);fill-opacity:1;" d="M 131.074219 104.53125 C 129.097656 104.53125 127.292969 104.417969 125.667969 104.179688 C 124.03125 103.953125 122.578125 103.679688 121.296875 103.351563 C 120 103.03125 118.921875 102.703125 118.035156 102.351563 C 117.136719 102.007813 116.464844 101.726563 116 101.507813 L 117.933594 96.011719 C 118.566406 96.351563 119.613281 96.75 121.046875 97.214844 C 122.476563 97.679688 124.011719 98.042969 125.644531 98.304688 C 127.292969 98.578125 128.828125 98.714844 130.246094 98.714844 C 133.132813 98.714844 135.371094 98.292969 136.984375 97.464844 C 138.597656 96.625 139.609375 95.601563 140.050781 94.386719 C 140.480469 93.160156 140.699219 92 140.699219 90.886719 C 140.699219 89.023438 140.085938 87.523438 138.867188 86.378906 C 137.640625 85.242188 136.175781 84.320313 134.449219 83.652344 C 132.734375 82.96875 131.179688 82.367188 129.78125 81.832031 C 128.453125 81.367188 127.191406 80.878906 125.996094 80.367188 C 124.816406 79.855469 123.613281 79.199219 122.40625 78.390625 C 121.191406 77.585938 120.179688 76.617188 119.339844 75.496094 C 118.511719 74.371094 117.964844 73.257813 117.695313 72.132813 C 117.433594 71.019531 117.296875 69.835938 117.296875 68.585938 C 117.296875 66.589844 117.671875 64.78125 118.433594 63.167969 C 119.183594 61.542969 120.261719 60.167969 121.65625 59.035156 C 123.054688 57.910156 124.761719 57.035156 126.769531 56.421875 C 128.769531 55.820313 131.03125 55.511719 133.539063 55.511719 C 135.449219 55.511719 137.222656 55.625 138.867188 55.863281 C 140.503906 56.089844 141.867188 56.363281 142.9375 56.660156 C 144.015625 56.953125 144.789063 57.160156 145.253906 57.273438 L 145.253906 63.292969 C 144.117188 62.871094 142.902344 62.511719 141.597656 62.179688 C 140.289063 61.863281 138.9375 61.613281 137.550781 61.429688 C 136.164063 61.261719 134.800781 61.167969 133.472656 61.167969 C 130.496094 61.167969 128.191406 61.78125 126.53125 62.996094 C 124.886719 64.214844 124.054688 65.972656 124.054688 68.257813 C 124.054688 69.40625 124.316406 70.382813 124.839844 71.1875 C 125.363281 71.984375 126.101563 72.6875 127.054688 73.300781 C 127.996094 73.902344 129.132813 74.472656 130.441406 74.984375 C 131.757813 75.496094 133.199219 76.015625 134.769531 76.574219 C 136.507813 77.222656 138.164063 77.902344 139.765625 78.605469 C 141.355469 79.324219 142.765625 80.199219 143.96875 81.253906 C 145.1875 82.3125 146.152344 83.59375 146.890625 85.128906 C 147.617188 86.660156 147.980469 88.558594 147.980469 90.820313 C 147.980469 93.023438 147.605469 94.964844 146.832031 96.679688 C 146.070313 98.386719 144.960938 99.828125 143.503906 100.988281 C 142.050781 102.15625 140.289063 103.03125 138.199219 103.632813 C 136.109375 104.234375 133.734375 104.53125 131.074219 104.53125 "/>
<path style=" stroke:none;fill-rule:nonzero;fill:rgb(92.89856%,10.998535%,14.099121%);fill-opacity:1;" d="M 156.636719 117.480469 L 156.636719 69.222656 L 162.964844 69.222656 L 163.101563 74.246094 C 163.691406 73.097656 164.542969 72.050781 165.621094 71.132813 C 166.714844 70.210938 167.929688 69.554688 169.269531 69.144531 C 170.609375 68.722656 171.996094 68.519531 173.414063 68.519531 C 176.609375 68.519531 179.253906 69.359375 181.367188 71.042969 C 183.46875 72.710938 184.914063 74.914063 185.675781 77.664063 C 186.445313 80.402344 186.820313 83.171875 186.820313 85.992188 C 186.820313 88.898438 186.503906 91.5 185.855469 93.785156 C 185.21875 96.066406 184.265625 98 183.015625 99.554688 C 181.765625 101.125 180.210938 102.316406 178.359375 103.132813 C 176.507813 103.953125 174.382813 104.371094 171.984375 104.371094 C 170.03125 104.371094 168.339844 104.121094 166.917969 103.621094 C 165.496094 103.121094 164.28125 102.453125 163.261719 101.601563 L 163.261719 117.480469 Z M 170.621094 99.011719 C 172.210938 99.011719 173.621094 98.703125 174.824219 98.078125 C 176.039063 97.453125 176.925781 96.679688 177.507813 95.75 C 178.085938 94.820313 178.515625 93.898438 178.800781 92.988281 C 179.117188 91.988281 179.347656 90.910156 179.503906 89.75 C 179.664063 88.605469 179.730469 87.390625 179.730469 86.128906 C 179.730469 83.402344 179.402344 81.09375 178.742188 79.21875 C 178.074219 77.347656 177.097656 76.027344 175.8125 75.265625 C 174.519531 74.496094 173.121094 74.109375 171.621094 74.109375 C 170.28125 74.109375 169.097656 74.425781 168.054688 75.0625 C 167.007813 75.699219 166.132813 76.574219 165.429688 77.710938 C 164.714844 78.84375 164.179688 80.199219 163.816406 81.765625 C 163.441406 83.34375 163.261719 85.058594 163.261719 86.921875 L 163.261719 95.785156 C 164.257813 96.785156 165.363281 97.566406 166.554688 98.148438 C 167.757813 98.726563 169.109375 99.011719 170.621094 99.011719 "/>
<path style=" stroke:none;fill-rule:nonzero;fill:rgb(92.89856%,10.998535%,14.099121%);fill-opacity:1;" d="M 204.703125 104.371094 C 203.261719 104.371094 201.886719 104.179688 200.589844 103.804688 C 199.296875 103.429688 198.160156 102.816406 197.191406 101.988281 C 196.226563 101.15625 195.464844 100.078125 194.898438 98.761719 C 194.328125 97.441406 194.046875 95.839844 194.046875 93.957031 C 194.046875 91.332031 194.648438 89.171875 195.839844 87.480469 C 197.046875 85.777344 198.808594 84.46875 201.136719 83.539063 C 202.453125 83.027344 203.917969 82.640625 205.542969 82.402344 C 207.179688 82.164063 209.007813 82.015625 211.019531 81.96875 C 211.109375 81.96875 211.324219 81.957031 211.679688 81.945313 C 212.019531 81.9375 212.382813 81.9375 212.757813 81.9375 C 213.132813 81.9375 213.496094 81.925781 213.835938 81.925781 C 214.175781 81.914063 214.402344 81.902344 214.519531 81.902344 L 214.519531 80.039063 C 214.519531 78.3125 214.199219 76.972656 213.574219 76.027344 C 212.9375 75.085938 211.960938 74.4375 210.65625 74.097656 C 209.347656 73.757813 207.949219 73.585938 206.464844 73.585938 C 204.601563 73.585938 202.886719 73.769531 201.304688 74.144531 C 199.726563 74.527344 198.214844 74.972656 196.773438 75.484375 L 196.773438 70.085938 C 198.648438 69.597656 200 69.28125 200.839844 69.121094 C 201.679688 68.960938 202.761719 68.828125 204.066406 68.703125 C 205.371094 68.585938 206.609375 68.519531 207.757813 68.519531 C 210.039063 68.519531 212.03125 68.746094 213.699219 69.191406 C 215.382813 69.632813 216.757813 70.324219 217.847656 71.257813 C 218.9375 72.1875 219.730469 73.371094 220.253906 74.8125 C 220.777344 76.253906 221.039063 77.972656 221.039063 79.96875 L 221.039063 103.703125 L 214.777344 103.703125 L 214.652344 100.769531 C 213.984375 101.441406 213.132813 102.042969 212.109375 102.589844 C 211.074219 103.132813 209.871094 103.566406 208.507813 103.882813 C 207.144531 104.203125 205.871094 104.371094 204.703125 104.371094 Z M 206.53125 99.273438 C 207.703125 99.273438 208.882813 99.089844 210.074219 98.714844 C 211.257813 98.328125 212.199219 97.910156 212.882813 97.429688 C 213.574219 96.953125 214.121094 96.5 214.519531 96.078125 L 214.519531 86.730469 L 212.050781 86.730469 C 210.121094 86.730469 208.453125 86.84375 207.03125 87.082031 C 205.609375 87.308594 204.429688 87.707031 203.488281 88.265625 C 202.542969 88.808594 201.839844 89.535156 201.375 90.421875 C 200.90625 91.308594 200.671875 92.398438 200.671875 93.683594 C 200.671875 94.820313 200.90625 95.839844 201.375 96.761719 C 201.839844 97.679688 202.53125 98.328125 203.464844 98.714844 C 204.394531 99.089844 205.417969 99.273438 206.53125 99.273438 "/>
<path style=" stroke:none;fill-rule:nonzero;fill:rgb(92.89856%,10.998535%,14.099121%);fill-opacity:1;" d="M 232.023438 103.703125 L 232.023438 69.222656 L 238.351563 69.222656 L 238.488281 75.742188 C 239.261719 74.164063 240.203125 72.859375 241.316406 71.8125 C 242.417969 70.78125 243.578125 70.050781 244.769531 69.632813 C 245.972656 69.222656 247.121094 69.019531 248.234375 69.019531 C 249.371094 69.019531 250.234375 69.085938 250.824219 69.222656 L 250.824219 75.484375 C 250.304688 75.347656 249.507813 75.277344 248.464844 75.277344 C 246.804688 75.277344 245.359375 75.585938 244.144531 76.199219 C 242.917969 76.800781 241.894531 77.585938 241.078125 78.539063 C 240.261719 79.492188 239.644531 80.550781 239.25 81.695313 C 238.851563 82.855469 238.648438 83.96875 238.648438 85.027344 L 238.648438 103.703125 L 232.023438 103.703125 "/>
<path style=" stroke:none;fill-rule:nonzero;fill:rgb(92.89856%,10.998535%,14.099121%);fill-opacity:1;" d="M 257.324219 103.703125 L 257.324219 53.613281 L 263.945313 53.613281 L 263.945313 82.570313 L 276.828125 69.222656 L 284.78125 69.222656 L 270.273438 84.128906 C 271.695313 85.378906 273.125 86.777344 274.566406 88.320313 C 276.011719 89.875 277.40625 91.5 278.769531 93.207031 C 280.136719 94.898438 281.464844 96.636719 282.734375 98.429688 C 284.007813 100.214844 285.214844 101.976563 286.347656 103.703125 L 278.054688 103.703125 C 276.660156 101.703125 275.101563 99.613281 273.386719 97.410156 C 271.660156 95.214844 270.003906 93.214844 268.386719 91.421875 C 266.785156 89.625 265.296875 88.058594 263.945313 86.730469 L 263.945313 103.703125 L 257.324219 103.703125 "/>
<path style=" stroke:none;fill-rule:nonzero;fill:rgb(92.89856%,10.998535%,14.099121%);fill-opacity:1;" d="M 300.195313 104.371094 C 298.753906 104.371094 297.378906 104.179688 296.085938 103.804688 C 294.789063 103.429688 293.652344 102.816406 292.6875 101.988281 C 291.722656 101.15625 290.960938 100.078125 290.394531 98.761719 C 289.824219 97.441406 289.539063 95.839844 289.539063 93.957031 C 289.539063 91.332031 290.144531 89.171875 291.335938 87.480469 C 292.539063 85.777344 294.300781 84.46875 296.628906 83.539063 C 297.949219 83.027344 299.414063 82.640625 301.039063 82.402344 C 302.675781 82.164063 304.503906 82.015625 306.515625 81.96875 C 306.605469 81.96875 306.820313 81.957031 307.171875 81.945313 C 307.511719 81.9375 307.878906 81.9375 308.253906 81.9375 C 308.628906 81.9375 308.988281 81.925781 309.332031 81.925781 C 309.671875 81.914063 309.898438 81.902344 310.011719 81.902344 L 310.011719 80.039063 C 310.011719 78.3125 309.695313 76.972656 309.070313 76.027344 C 308.433594 75.085938 307.457031 74.4375 306.148438 74.097656 C 304.84375 73.757813 303.445313 73.585938 301.957031 73.585938 C 300.09375 73.585938 298.378906 73.769531 296.800781 74.144531 C 295.222656 74.527344 293.710938 74.972656 292.269531 75.484375 L 292.269531 70.085938 C 294.144531 69.597656 295.492188 69.28125 296.335938 69.121094 C 297.175781 68.960938 298.253906 68.828125 299.5625 68.703125 C 300.867188 68.585938 302.105469 68.519531 303.253906 68.519531 C 305.535156 68.519531 307.523438 68.746094 309.195313 69.191406 C 310.875 69.632813 312.25 70.324219 313.339844 71.257813 C 314.433594 72.1875 315.226563 73.371094 315.75 74.8125 C 316.273438 76.253906 316.535156 77.972656 316.535156 79.96875 L 316.535156 103.703125 L 310.273438 103.703125 L 310.148438 100.769531 C 309.480469 101.441406 308.628906 102.042969 307.605469 102.589844 C 306.570313 103.132813 305.367188 103.566406 304.003906 103.882813 C 302.640625 104.203125 301.367188 104.371094 300.195313 104.371094 Z M 302.027344 99.273438 C 303.195313 99.273438 304.378906 99.089844 305.570313 98.714844 C 306.753906 98.328125 307.695313 97.910156 308.378906 97.429688 C 309.070313 96.953125 309.613281 96.5 310.011719 96.078125 L 310.011719 86.730469 L 307.546875 86.730469 C 305.617188 86.730469 303.945313 86.84375 302.527344 87.082031 C 301.105469 87.308594 299.925781 87.707031 298.980469 88.265625 C 298.039063 88.808594 297.335938 89.535156 296.867188 90.421875 C 296.402344 91.308594 296.164063 92.398438 296.164063 93.683594 C 296.164063 94.820313 296.402344 95.839844 296.867188 96.761719 C 297.335938 97.679688 298.027344 98.328125 298.960938 98.714844 C 299.890625 99.089844 300.914063 99.273438 302.027344 99.273438 "/>
<path style=" stroke:none;fill-rule:nonzero;fill:rgb(92.89856%,10.998535%,14.099121%);fill-opacity:1;" d="M 337.140625 104.371094 C 335.585938 104.371094 334.164063 104.28125 332.859375 104.121094 C 331.5625 103.953125 330.402344 103.746094 329.371094 103.496094 C 328.335938 103.257813 327.4375 102.996094 326.6875 102.734375 C 325.941406 102.476563 325.324219 102.226563 324.859375 102.007813 L 326.621094 97.011719 C 327.78125 97.476563 328.8125 97.851563 329.746094 98.125 C 330.6875 98.40625 331.769531 98.636719 332.996094 98.804688 C 334.234375 98.988281 335.460938 99.078125 336.710938 99.078125 C 338.710938 99.078125 340.300781 98.851563 341.480469 98.398438 C 342.671875 97.941406 343.445313 97.328125 343.808594 96.578125 C 344.171875 95.828125 344.367188 95.078125 344.367188 94.351563 C 344.367188 93.148438 343.898438 92.195313 342.980469 91.46875 C 342.058594 90.75 340.902344 90.171875 339.503906 89.730469 C 338.105469 89.273438 336.824219 88.84375 335.640625 88.421875 C 334.242188 87.957031 332.949219 87.46875 331.769531 86.957031 C 330.574219 86.445313 329.539063 85.832031 328.664063 85.09375 C 327.792969 84.367188 327.109375 83.480469 326.621094 82.433594 C 326.132813 81.390625 325.894531 80.117188 325.894531 78.605469 C 325.894531 76.984375 326.191406 75.539063 326.804688 74.277344 C 327.417969 73.019531 328.28125 71.960938 329.382813 71.121094 C 330.496094 70.28125 331.835938 69.632813 333.414063 69.191406 C 334.980469 68.746094 336.730469 68.519531 338.640625 68.519531 C 340.902344 68.519531 342.867188 68.65625 344.523438 68.917969 C 346.195313 69.191406 347.660156 69.507813 348.921875 69.882813 L 348.921875 75.347656 C 347.480469 74.859375 345.957031 74.472656 344.34375 74.199219 C 342.742188 73.914063 340.96875 73.777344 339.039063 73.777344 C 336.753906 73.777344 335.0625 74.132813 333.984375 74.847656 C 332.890625 75.550781 332.347656 76.628906 332.347656 78.074219 C 332.347656 78.8125 332.539063 79.425781 332.925781 79.9375 C 333.3125 80.449219 333.871094 80.902344 334.574219 81.300781 C 335.289063 81.695313 336.152344 82.070313 337.1875 82.414063 C 338.21875 82.765625 339.378906 83.128906 340.664063 83.539063 C 343.332031 84.355469 345.421875 85.21875 346.945313 86.128906 C 348.457031 87.035156 349.535156 88.171875 350.171875 89.523438 C 350.808594 90.875 351.113281 92.351563 351.113281 93.957031 C 351.113281 95.703125 350.785156 97.238281 350.113281 98.542969 C 349.457031 99.851563 348.511719 100.941406 347.285156 101.804688 C 346.070313 102.667969 344.605469 103.316406 342.878906 103.734375 C 341.164063 104.15625 339.242188 104.371094 337.140625 104.371094 "/>
<path style=" stroke:none;fill-rule:nonzero;fill:rgb(92.89856%,10.998535%,14.099121%);fill-opacity:1;" d="M 369.121094 104.371094 C 367.5625 104.371094 366.144531 104.28125 364.839844 104.121094 C 363.542969 103.953125 362.382813 103.746094 361.351563 103.496094 C 360.316406 103.257813 359.417969 102.996094 358.667969 102.734375 C 357.917969 102.476563 357.304688 102.226563 356.839844 102.007813 L 358.601563 97.011719 C 359.757813 97.476563 360.792969 97.851563 361.726563 98.125 C 362.667969 98.40625 363.746094 98.636719 364.972656 98.804688 C 366.210938 98.988281 367.4375 99.078125 368.6875 99.078125 C 370.6875 99.078125 372.277344 98.851563 373.460938 98.398438 C 374.652344 97.941406 375.425781 97.328125 375.789063 96.578125 C 376.152344 95.828125 376.34375 95.078125 376.34375 94.351563 C 376.34375 93.148438 375.878906 92.195313 374.960938 91.46875 C 374.039063 90.75 372.878906 90.171875 371.484375 89.730469 C 370.085938 89.273438 368.800781 88.84375 367.621094 88.421875 C 366.222656 87.957031 364.929688 87.46875 363.746094 86.957031 C 362.554688 86.445313 361.519531 85.832031 360.644531 85.09375 C 359.769531 84.367188 359.089844 83.480469 358.601563 82.433594 C 358.113281 81.390625 357.871094 80.117188 357.871094 78.605469 C 357.871094 76.984375 358.167969 75.539063 358.78125 74.277344 C 359.394531 73.019531 360.257813 71.960938 361.359375 71.121094 C 362.472656 70.28125 363.816406 69.632813 365.394531 69.191406 C 366.960938 68.746094 368.710938 68.519531 370.621094 68.519531 C 372.878906 68.519531 374.847656 68.65625 376.503906 68.917969 C 378.175781 69.191406 379.640625 69.507813 380.902344 69.882813 L 380.902344 75.347656 C 379.457031 74.859375 377.9375 74.472656 376.324219 74.199219 C 374.722656 73.914063 372.949219 73.777344 371.015625 73.777344 C 368.734375 73.777344 367.039063 74.132813 365.960938 74.847656 C 364.871094 75.550781 364.324219 76.628906 364.324219 78.074219 C 364.324219 78.8125 364.519531 79.425781 364.90625 79.9375 C 365.292969 80.449219 365.847656 80.902344 366.554688 81.300781 C 367.269531 81.695313 368.132813 82.070313 369.164063 82.414063 C 370.199219 82.765625 371.359375 83.128906 372.640625 83.539063 C 375.3125 84.355469 377.402344 85.21875 378.925781 86.128906 C 380.433594 87.035156 381.515625 88.171875 382.148438 89.523438 C 382.785156 90.875 383.09375 92.351563 383.09375 93.957031 C 383.09375 95.703125 382.765625 97.238281 382.09375 98.542969 C 381.433594 99.851563 380.492188 100.941406 379.265625 101.804688 C 378.050781 102.667969 376.585938 103.316406 374.855469 103.734375 C 373.140625 104.15625 371.222656 104.371094 369.121094 104.371094 "/>
<path style=" stroke:none;fill-rule:nonzero;fill:rgb(92.89856%,10.998535%,14.099121%);fill-opacity:1;" d="M 406.925781 104.53125 C 404.304688 104.53125 401.972656 104.109375 399.929688 103.269531 C 397.894531 102.429688 396.167969 101.226563 394.761719 99.65625 C 393.351563 98.089844 392.285156 96.203125 391.546875 93.988281 C 390.816406 91.761719 390.453125 89.273438 390.453125 86.527344 C 390.453125 83.84375 390.785156 81.390625 391.441406 79.152344 C 392.113281 76.925781 393.089844 75.015625 394.375 73.414063 C 395.65625 71.8125 397.257813 70.574219 399.167969 69.699219 C 401.078125 68.828125 403.257813 68.394531 405.722656 68.394531 C 410.324219 68.394531 413.777344 69.78125 416.105469 72.550781 C 418.433594 75.324219 419.605469 79.300781 419.605469 84.46875 C 419.605469 85.992188 419.558594 87.34375 419.46875 88.492188 L 397.476563 88.492188 C 397.738281 91.976563 398.714844 94.648438 400.394531 96.5 C 402.089844 98.351563 404.585938 99.273438 407.894531 99.273438 C 409.414063 99.273438 410.902344 99.167969 412.347656 98.964844 C 413.789063 98.75 415.0625 98.488281 416.140625 98.179688 L 417.433594 103.234375 C 416.003906 103.679688 414.4375 104.007813 412.765625 104.214844 C 411.085938 104.429688 409.140625 104.53125 406.925781 104.53125 Z M 397.339844 83.730469 L 412.652344 83.730469 L 412.652344 82.164063 C 412.652344 79.324219 412.074219 77.128906 410.9375 75.574219 C 409.789063 74.027344 407.996094 73.246094 405.5625 73.246094 C 402.984375 73.246094 401.019531 74.164063 399.667969 76.003906 C 398.316406 77.855469 397.542969 80.425781 397.339844 83.730469 "/>
</g>
</svg>
