<svg width="784" height="199" viewBox="0 0 784 199" fill="none" xmlns="http://www.w3.org/2000/svg">
<path d="M182.665 134.765C180.512 134.765 178.868 134.17 177.735 132.98C176.602 131.79 176.035 130.118 176.035 127.965V80.79C176.035 76.3133 178.273 74.075 182.75 74.075H203.405C210.092 74.075 215.248 75.69 218.875 78.92C222.502 82.15 224.315 86.655 224.315 92.435C224.315 96.9117 223.153 100.652 220.83 103.655C218.563 106.602 215.305 108.613 211.055 109.69C214.058 110.597 216.523 112.778 218.45 116.235L223.72 126.01C224.91 128.163 225.137 130.175 224.4 132.045C223.663 133.858 221.878 134.765 219.045 134.765C217.175 134.765 215.645 134.368 214.455 133.575C213.265 132.782 212.245 131.563 211.395 129.92L203.235 114.875C202.385 113.288 201.337 112.212 200.09 111.645C198.843 111.078 197.37 110.795 195.67 110.795H189.21V127.965C189.21 130.118 188.643 131.79 187.51 132.98C186.433 134.17 184.818 134.765 182.665 134.765ZM189.21 101.275H201.025C208.108 101.275 211.65 98.4417 211.65 92.775C211.65 87.165 208.108 84.36 201.025 84.36H189.21V101.275ZM253.012 134.935C248.536 134.935 244.626 134.057 241.282 132.3C237.996 130.487 235.446 127.965 233.632 124.735C231.819 121.448 230.912 117.567 230.912 113.09C230.912 108.67 231.819 104.845 233.632 101.615C235.446 98.3283 237.996 95.8067 241.282 94.05C244.626 92.2933 248.536 91.415 253.012 91.415C257.489 91.415 261.371 92.2933 264.657 94.05C268.001 95.8067 270.579 98.3283 272.392 101.615C274.262 104.845 275.197 108.67 275.197 113.09C275.197 117.567 274.262 121.448 272.392 124.735C270.579 127.965 268.001 130.487 264.657 132.3C261.371 134.057 257.489 134.935 253.012 134.935ZM253.012 125.33C255.732 125.33 257.942 124.338 259.642 122.355C261.399 120.372 262.277 117.283 262.277 113.09C262.277 108.953 261.399 105.922 259.642 103.995C257.942 102.012 255.732 101.02 253.012 101.02C250.292 101.02 248.082 102.012 246.382 103.995C244.682 105.922 243.832 108.953 243.832 113.09C243.832 117.283 244.682 120.372 246.382 122.355C248.082 124.338 250.292 125.33 253.012 125.33ZM298.051 134.935C288.021 134.935 283.006 129.353 283.006 118.19V79.855C283.006 75.4917 285.16 73.31 289.466 73.31C293.716 73.31 295.841 75.4917 295.841 79.855V117.68C295.841 120.003 296.323 121.732 297.286 122.865C298.306 123.942 299.638 124.48 301.281 124.48C301.735 124.48 302.16 124.452 302.556 124.395C303.01 124.338 303.435 124.31 303.831 124.31C304.738 124.253 305.361 124.537 305.701 125.16C306.098 125.783 306.296 127.058 306.296 128.985C306.296 132.272 304.908 134.142 302.131 134.595C301.565 134.652 300.913 134.708 300.176 134.765C299.44 134.878 298.731 134.935 298.051 134.935ZM326.357 134.935C316.327 134.935 311.312 129.353 311.312 118.19V79.855C311.312 75.4917 313.465 73.31 317.772 73.31C322.022 73.31 324.147 75.4917 324.147 79.855V117.68C324.147 120.003 324.629 121.732 325.592 122.865C326.612 123.942 327.944 124.48 329.587 124.48C330.04 124.48 330.465 124.452 330.862 124.395C331.315 124.338 331.74 124.31 332.137 124.31C333.044 124.253 333.667 124.537 334.007 125.16C334.404 125.783 334.602 127.058 334.602 128.985C334.602 132.272 333.214 134.142 330.437 134.595C329.87 134.652 329.219 134.708 328.482 134.765C327.745 134.878 327.037 134.935 326.357 134.935ZM346.078 84.615C343.698 84.615 341.856 84.0767 340.553 83C339.306 81.8667 338.683 80.28 338.683 78.24C338.683 76.1433 339.306 74.5567 340.553 73.48C341.856 72.3467 343.698 71.78 346.078 71.78C350.951 71.78 353.388 73.9333 353.388 78.24C353.388 82.49 350.951 84.615 346.078 84.615ZM346.078 134.68C343.981 134.68 342.366 134.085 341.233 132.895C340.156 131.648 339.618 129.92 339.618 127.71V98.64C339.618 93.9367 341.771 91.585 346.078 91.585C348.118 91.585 349.676 92.2083 350.753 93.455C351.886 94.645 352.453 96.3733 352.453 98.64V127.71C352.453 129.92 351.914 131.648 350.838 132.895C349.761 134.085 348.174 134.68 346.078 134.68ZM368.822 134.765C364.515 134.765 362.362 132.583 362.362 128.22V98.045C362.362 93.7383 364.458 91.585 368.652 91.585C372.845 91.585 374.942 93.7383 374.942 98.045V98.385C376.358 96.1183 378.257 94.39 380.637 93.2C383.017 92.01 385.68 91.415 388.627 91.415C393.557 91.415 397.24 92.86 399.677 95.75C402.113 98.5833 403.332 102.975 403.332 108.925V128.22C403.332 132.583 401.178 134.765 396.872 134.765C394.832 134.765 393.245 134.198 392.112 133.065C391.035 131.932 390.497 130.317 390.497 128.22V109.52C390.497 106.63 389.958 104.562 388.882 103.315C387.805 102.012 386.218 101.36 384.122 101.36C381.402 101.36 379.22 102.21 377.577 103.91C375.99 105.61 375.197 107.877 375.197 110.71V128.22C375.197 132.583 373.072 134.765 368.822 134.765ZM432.973 150.235C429.913 150.235 426.995 149.98 424.218 149.47C421.442 148.96 418.948 148.195 416.738 147.175C415.095 146.495 414.047 145.532 413.593 144.285C413.14 143.038 413.14 141.82 413.593 140.63C414.103 139.44 414.868 138.533 415.888 137.91C416.965 137.343 418.155 137.343 419.458 137.91C421.952 139.043 424.247 139.78 426.343 140.12C428.497 140.46 430.338 140.63 431.868 140.63C439.122 140.63 442.748 137.287 442.748 130.6V125.84C441.615 127.993 439.83 129.722 437.393 131.025C434.957 132.328 432.293 132.98 429.403 132.98C425.663 132.98 422.405 132.13 419.628 130.43C416.852 128.673 414.698 126.237 413.168 123.12C411.638 120.003 410.873 116.348 410.873 112.155C410.873 108.018 411.638 104.392 413.168 101.275C414.698 98.1583 416.852 95.75 419.628 94.05C422.405 92.2933 425.663 91.415 429.403 91.415C432.293 91.415 434.928 92.0383 437.308 93.285C439.688 94.5317 441.445 96.175 442.578 98.215V98.045C442.578 95.9483 443.117 94.3617 444.193 93.285C445.327 92.1517 446.913 91.585 448.953 91.585C453.147 91.585 455.243 93.7383 455.243 98.045V129.155C455.243 136.182 453.345 141.452 449.548 144.965C445.752 148.478 440.227 150.235 432.973 150.235ZM433.228 123.375C436.062 123.375 438.328 122.383 440.028 120.4C441.785 118.417 442.663 115.668 442.663 112.155C442.663 108.642 441.785 105.922 440.028 103.995C438.328 102.012 436.062 101.02 433.228 101.02C430.338 101.02 428.043 102.012 426.343 103.995C424.643 105.922 423.793 108.642 423.793 112.155C423.793 115.668 424.643 118.417 426.343 120.4C428.043 122.383 430.338 123.375 433.228 123.375ZM495.579 134.765C491.159 134.765 488.949 132.583 488.949 128.22V98.045C488.949 93.7383 491.045 91.585 495.239 91.585C499.432 91.585 501.529 93.7383 501.529 98.045V99.575C503.569 94.5317 507.79 91.8117 514.194 91.415C515.61 91.3017 516.687 91.67 517.424 92.52C518.217 93.3133 518.642 94.645 518.699 96.515C518.812 98.2717 518.444 99.66 517.594 100.68C516.8 101.7 515.44 102.323 513.514 102.55L511.559 102.72C505.212 103.343 502.039 106.573 502.039 112.41V128.22C502.039 132.583 499.885 134.765 495.579 134.765ZM587.438 134.935C584.945 134.935 582.367 134.708 579.703 134.255C577.097 133.802 574.717 133.037 572.563 131.96C571.147 131.223 570.212 130.288 569.758 129.155C569.362 128.022 569.362 126.917 569.758 125.84C570.155 124.763 570.863 123.97 571.883 123.46C572.903 122.893 574.093 122.893 575.453 123.46C577.777 124.423 579.902 125.103 581.828 125.5C583.812 125.897 585.71 126.095 587.523 126.095C589.903 126.095 591.66 125.727 592.793 124.99C593.927 124.197 594.493 123.177 594.493 121.93C594.493 119.947 593.048 118.7 590.158 118.19L581.233 116.575C577.663 115.952 574.943 114.677 573.073 112.75C571.203 110.823 570.268 108.302 570.268 105.185C570.268 102.352 571.062 99.915 572.648 97.875C574.235 95.835 576.417 94.2483 579.193 93.115C581.97 91.9817 585.172 91.415 588.798 91.415C593.785 91.415 598.205 92.3783 602.058 94.305C603.362 94.9283 604.155 95.8067 604.438 96.94C604.778 98.0733 604.722 99.1783 604.268 100.255C603.815 101.332 603.078 102.153 602.058 102.72C601.038 103.23 599.82 103.173 598.403 102.55C596.533 101.7 594.833 101.105 593.303 100.765C591.773 100.368 590.328 100.17 588.968 100.17C586.418 100.17 584.577 100.595 583.443 101.445C582.31 102.238 581.743 103.258 581.743 104.505C581.743 106.488 583.075 107.735 585.738 108.245L594.663 109.86C598.347 110.483 601.152 111.73 603.078 113.6C605.005 115.413 605.968 117.907 605.968 121.08C605.968 125.443 604.268 128.843 600.868 131.28C597.468 133.717 592.992 134.935 587.438 134.935ZM634.969 134.935C630.039 134.935 625.789 134.057 622.219 132.3C618.706 130.487 615.986 127.965 614.059 124.735C612.189 121.448 611.254 117.595 611.254 113.175C611.254 108.868 612.161 105.1 613.974 101.87C615.844 98.5833 618.366 96.0333 621.539 94.22C624.769 92.35 628.481 91.415 632.674 91.415C638.738 91.415 643.554 93.3417 647.124 97.195C650.694 100.992 652.479 106.148 652.479 112.665C652.479 114.818 651.148 115.895 648.484 115.895H623.494C623.948 119.182 625.138 121.59 627.064 123.12C629.048 124.593 631.768 125.33 635.224 125.33C636.584 125.33 638.114 125.188 639.814 124.905C641.571 124.565 643.243 123.998 644.829 123.205C646.473 122.412 647.861 122.27 648.994 122.78C650.128 123.233 650.893 124.027 651.289 125.16C651.743 126.293 651.743 127.483 651.289 128.73C650.893 129.92 649.958 130.912 648.484 131.705C646.501 132.782 644.291 133.575 641.854 134.085C639.474 134.652 637.179 134.935 634.969 134.935ZM633.184 99.915C630.464 99.915 628.254 100.737 626.554 102.38C624.911 104.023 623.891 106.318 623.494 109.265H641.854C641.514 103.032 638.624 99.915 633.184 99.915ZM666.575 134.765C662.155 134.765 659.945 132.583 659.945 128.22V98.045C659.945 93.7383 662.041 91.585 666.235 91.585C670.428 91.585 672.525 93.7383 672.525 98.045V99.575C674.565 94.5317 678.786 91.8117 685.19 91.415C686.606 91.3017 687.683 91.67 688.42 92.52C689.213 93.3133 689.638 94.645 689.695 96.515C689.808 98.2717 689.44 99.66 688.59 100.68C687.796 101.7 686.436 102.323 684.51 102.55L682.555 102.72C676.208 103.343 673.035 106.573 673.035 112.41V128.22C673.035 132.583 670.881 134.765 666.575 134.765ZM715.227 134.765C711.884 134.765 709.447 133.008 707.917 129.495L695.082 99.915C694.119 97.705 694.091 95.7783 694.997 94.135C695.904 92.435 697.774 91.585 700.607 91.585C702.137 91.585 703.384 91.9533 704.347 92.69C705.311 93.37 706.161 94.7017 706.897 96.685L715.652 118.785L724.662 96.6C725.456 94.6733 726.334 93.37 727.297 92.69C728.261 91.9533 729.592 91.585 731.292 91.585C733.446 91.585 734.976 92.435 735.882 94.135C736.789 95.7783 736.732 97.6767 735.712 99.83L722.622 129.495C721.149 133.008 718.684 134.765 715.227 134.765ZM763.631 134.935C758.701 134.935 754.451 134.057 750.881 132.3C747.368 130.487 744.648 127.965 742.721 124.735C740.851 121.448 739.916 117.595 739.916 113.175C739.916 108.868 740.823 105.1 742.636 101.87C744.506 98.5833 747.028 96.0333 750.201 94.22C753.431 92.35 757.143 91.415 761.336 91.415C767.4 91.415 772.216 93.3417 775.786 97.195C779.356 100.992 781.141 106.148 781.141 112.665C781.141 114.818 779.81 115.895 777.146 115.895H752.156C752.61 119.182 753.8 121.59 755.726 123.12C757.71 124.593 760.43 125.33 763.886 125.33C765.246 125.33 766.776 125.188 768.476 124.905C770.233 124.565 771.905 123.998 773.491 123.205C775.135 122.412 776.523 122.27 777.656 122.78C778.79 123.233 779.555 124.027 779.951 125.16C780.405 126.293 780.405 127.483 779.951 128.73C779.555 129.92 778.62 130.912 777.146 131.705C775.163 132.782 772.953 133.575 770.516 134.085C768.136 134.652 765.841 134.935 763.631 134.935ZM761.846 99.915C759.126 99.915 756.916 100.737 755.216 102.38C753.573 104.023 752.553 106.318 752.156 109.265H770.516C770.176 103.032 767.286 99.915 761.846 99.915Z" fill="white"/>
<g opacity="0.1">
<path opacity="0.1" d="M198 193.351V198H193.351" stroke="#20263C" stroke-miterlimit="10"/>
<path opacity="0.1" d="M184.409 198H10.1123" stroke="#20263C" stroke-miterlimit="10" stroke-dasharray="5.77 5.77"/>
<path opacity="0.1" d="M5.6491 198H1V193.351" stroke="#20263C" stroke-miterlimit="10"/>
<path opacity="0.1" d="M1 184.409V10.1122" stroke="#20263C" stroke-miterlimit="10" stroke-dasharray="5.77 5.77"/>
<path opacity="0.1" d="M1 5.64915V1H5.6491" stroke="#20263C" stroke-miterlimit="10"/>
<path opacity="0.1" d="M14.5755 1H188.888" stroke="#20263C" stroke-miterlimit="10" stroke-dasharray="5.77 5.77"/>
<path opacity="0.1" d="M193.351 1H198V5.64915" stroke="#20263C" stroke-miterlimit="10"/>
<path opacity="0.1" d="M198 14.5755V188.888" stroke="#20263C" stroke-miterlimit="10" stroke-dasharray="5.77 5.77"/>
</g>
<path d="M98.6321 125.501C95.6156 125.514 92.6389 124.784 89.9463 123.369C87.2538 121.954 84.9218 119.895 83.1421 117.361L70.7372 124.773C71.2093 125.339 71.7681 125.82 72.3913 126.196L94.4654 139.432C95.7556 140.117 97.1835 140.475 98.6321 140.475C100.081 140.475 101.509 140.117 102.799 139.432L124.873 126.196C125.496 125.82 126.055 125.339 126.527 124.773L114.154 117.229C112.385 119.792 110.054 121.879 107.355 123.317C104.655 124.756 101.665 125.505 98.6321 125.501Z" fill="#42A66C"/>
<path d="M79.21 105.527C79.2213 100.821 81.0503 96.2844 84.3473 92.7837C87.6444 89.283 92.1784 87.064 97.0824 86.5507V72.287C96.3384 72.4345 95.6226 72.6905 94.9603 73.046L71.9484 85.6968C70.6976 86.4949 69.6576 87.5584 68.9098 88.804C68.1619 90.0495 67.7266 91.4432 67.6378 92.8761V118.178C67.648 118.908 67.7708 119.632 68.0025 120.328L80.9344 113.212C79.8036 110.793 79.2162 108.175 79.21 105.527Z" fill="#42A66C"/>
<path d="M125.543 85.688L103.742 73.0456C103.115 72.6902 102.437 72.4344 101.732 72.287V86.5097C104.693 86.8474 107.535 87.8798 110.027 89.5243C112.52 91.1687 114.594 93.3791 116.082 95.9774C117.571 98.5756 118.432 101.489 118.596 104.484C118.761 107.478 118.224 110.469 117.03 113.217L129.281 120.328C129.501 119.633 129.617 118.909 129.627 118.179V92.8942C129.547 91.4568 129.137 90.0577 128.428 88.8071C127.719 87.5565 126.732 86.4887 125.543 85.688Z" fill="#42A66C"/>
<path d="M141.422 73.0171L105.433 52.2031C103.323 51.1429 100.994 50.5909 98.6322 50.5909C96.2707 50.5909 93.9421 51.1429 91.8314 52.2031L55.842 73.0171C53.8666 74.3058 52.2219 76.0416 51.0404 78.0843C49.859 80.127 49.1742 82.4192 49.0412 84.7757V126.403C49.1717 128.765 49.8553 131.063 51.0366 133.111C52.218 135.159 53.8641 136.901 55.842 138.195L91.8314 159.009C93.9421 160.069 96.2707 160.621 98.6322 160.621C100.994 160.621 103.323 160.069 105.433 159.009L141.422 138.195C143.4 136.901 145.046 135.159 146.228 133.111C147.409 131.063 148.093 128.765 148.223 126.403V84.7757C148.09 82.4192 147.405 80.127 146.224 78.0843C145.042 76.0416 143.398 74.3058 141.422 73.0171ZM136.802 121.615C136.696 123.429 136.167 125.194 135.257 126.766C134.347 128.339 133.082 129.676 131.563 130.671L103.838 146.696C102.219 147.515 100.43 147.942 98.6159 147.942C96.8016 147.942 95.0126 147.515 93.3933 146.696L65.7018 130.671C64.1823 129.676 62.9169 128.339 62.0072 126.766C61.0974 125.194 60.5685 123.429 60.4628 121.615V89.5965C60.5685 87.7823 61.0974 86.0182 62.0072 84.4457C62.9169 82.8731 64.1823 81.5358 65.7018 80.5412L93.3607 64.5156C94.9801 63.6969 96.7689 63.2703 98.5833 63.2703C100.398 63.2703 102.187 63.6969 103.806 64.5156L131.53 80.5412C133.055 81.5323 134.327 82.868 135.243 84.4408C136.158 86.0134 136.692 87.7795 136.802 89.5965V121.615Z" fill="white"/>
<path d="M84.6847 105.606C84.6847 108.211 85.5026 110.758 87.0351 112.924C88.5677 115.09 90.7461 116.779 93.2948 117.776C95.8433 118.773 98.6476 119.034 101.353 118.525C104.059 118.017 106.544 116.763 108.494 114.92C110.445 113.078 111.773 110.731 112.312 108.176C112.85 105.62 112.574 102.972 111.518 100.565C110.462 98.1579 108.675 96.1007 106.381 94.6533C104.087 93.2058 101.391 92.4333 98.6321 92.4333C94.9331 92.4333 91.3855 93.8211 88.7699 96.2915C86.1541 98.7619 84.6847 102.112 84.6847 105.606Z" fill="#42A66C"/>
<circle cx="543.5" cy="112.5" r="21.5" transform="rotate(14.2391 543.5 112.5)" fill="#42A66C"/>
<path d="M540.08 111.676L540.068 111.741L540.068 111.808C540.068 112.166 540.119 112.488 540.264 112.808C540.401 113.11 540.602 113.363 540.813 113.605C540.921 113.729 541.039 113.858 541.171 114.001C541.568 114.435 542.088 115.002 542.807 115.942L542.984 116.174L543.27 116.225C545.401 116.606 547.46 115.193 547.841 113.065C548.222 110.938 546.781 108.898 544.651 108.516C542.52 108.135 540.461 109.548 540.08 111.676ZM541.059 122.287C535.992 120.823 532.76 115.785 533.7 110.534C534.706 104.917 540.102 101.186 545.781 102.203C551.46 103.219 555.226 108.592 554.221 114.208C553.829 116.397 552.749 118.302 551.259 119.765L550.801 120.213L551.173 120.735L553.04 123.353L553.53 124.04L554.155 123.472C556.517 121.325 558.234 118.416 558.84 115.035C560.3 106.878 554.814 99.0802 546.603 97.61C538.392 96.1399 530.542 101.549 529.081 109.706C527.682 117.518 532.655 125.001 540.291 126.911L540.167 127.128L539.167 128.88L541.068 128.207L546.721 126.207L547.821 125.818L547.011 124.979L541.989 119.779L540.252 117.98L540.713 120.438L541.059 122.287Z" fill="white" stroke="white" stroke-width="1.5"/>
</svg>
